<svg width="120" height="29" viewBox="0 0 120 29" fill="none" xmlns="http://www.w3.org/2000/svg">
<path d="M108.973 14.0994C109.551 13.4727 110.105 12.8581 110.636 12.2556C111.166 11.629 111.66 11.0385 112.118 10.4841C114.071 8.23733 116.837 9.03805 119.746 9.03805C118.468 10.5082 117.215 11.9182 115.986 13.2679C114.781 14.5934 113.455 15.9672 112.009 17.3892C112.732 18.0399 113.479 18.8232 114.251 19.7391C115.022 20.6309 115.769 21.5588 116.492 22.5228C117.215 23.4869 117.878 24.4509 118.481 25.415C119.083 26.3791 119.589 27.2588 119.999 28.0541H113.817C113.431 27.4275 112.985 26.7406 112.479 25.9934C111.997 25.2222 111.479 24.463 110.925 23.7158C110.37 22.9446 109.78 22.2095 109.153 21.5106C108.551 20.8116 107.948 20.2211 107.346 19.7391V28.0541H101.959V0.867653L107.346 0C107.299 10.6796 105.382 18.1576 108.973 14.0994Z" fill="#6C38FF"/>
<path d="M96.4747 13.2227C94.6947 12.9684 94.042 13.0625 92.6605 13.477L92.4531 28.0594H87.0664V10.0556C93.6776 8.13717 96.178 8.05595 100.035 9.66283C99.5427 12.0828 98.2546 13.477 96.4747 13.2227Z" fill="#6C38FF"/>
<path d="M76.8112 24.2106C77.3415 24.2106 77.8476 24.1986 78.3296 24.1745C78.8116 24.1503 79.1973 24.1142 79.4865 24.066V19.9808C79.2696 19.9326 78.9442 19.8844 78.5104 19.8362C78.0765 19.788 77.6789 19.7639 77.3173 19.7639C76.8112 19.7639 76.3292 19.8 75.8713 19.8723C75.4374 19.9205 75.0518 20.029 74.7144 20.1977C74.377 20.3664 74.1119 20.5954 73.919 20.8846C73.7262 21.1738 73.6298 21.5353 73.6298 21.9692C73.6298 22.8127 73.907 23.4032 74.4613 23.7406C75.0398 24.0539 75.8231 24.2106 76.8112 24.2106ZM76.3774 8.44824C77.9681 8.44824 79.2937 8.629 80.3541 8.99052C81.4146 9.35205 82.2581 9.87023 82.8848 10.5451C83.5355 11.2199 83.9935 12.0394 84.2586 13.0034C84.5237 13.9675 84.6562 15.04 84.6562 16.221V27.4281C83.885 27.5969 82.8125 27.7897 81.4387 28.0066C80.0649 28.2476 78.4019 28.3681 76.4497 28.3681C75.2205 28.3681 74.0998 28.2596 73.0875 28.0427C72.0994 27.8258 71.2438 27.4764 70.5207 26.9943C69.7977 26.4882 69.2434 25.8374 68.8577 25.0421C68.4721 24.2468 68.2793 23.2706 68.2793 22.1138C68.2793 21.0051 68.4962 20.0651 68.93 19.2939C69.388 18.5227 69.9905 17.9081 70.7376 17.4501C71.4848 16.9922 72.3404 16.6668 73.3045 16.474C74.2685 16.2571 75.2687 16.1487 76.3051 16.1487C77.004 16.1487 77.6186 16.1848 78.1488 16.2571C78.7032 16.3053 79.1491 16.3776 79.4865 16.474V15.9679C79.4865 15.052 79.2093 14.317 78.655 13.7626C78.1006 13.2083 77.1366 12.9311 75.7628 12.9311C74.8469 12.9311 73.9431 13.0034 73.0514 13.148C69.9111 13.5724 70.5592 12.563 70.0508 9.35205C70.3641 9.25564 70.7497 9.15924 71.2076 9.06283C71.6897 8.94232 72.2078 8.84592 72.7622 8.77361C73.3165 8.67721 73.8949 8.6049 74.4975 8.5567C75.1241 8.48439 75.7508 8.44824 76.3774 8.44824Z" fill="#6C38FF"/>
<path d="M68.8041 3.05127C68.8041 3.05127 68.8041 5.35972 68.8041 6.49399C68.8041 7.62826 67.8863 7.88253 67.3778 7.85951C66.8692 7.8365 61.2483 7.85951 61.2483 7.85951V28.1048H55.6085V7.85951H48.0527C48.0527 7.85951 48.0527 7.37398 48.0527 5.45539C48.0527 3.5368 48.0527 3.05127 51.6126 3.05127C55.1725 3.05127 68.8041 3.05127 68.8041 3.05127Z" fill="#6C38FF"/>
<path d="M30.3555 18.607C30.3555 16.9199 30.6085 15.4497 31.1147 14.1964C31.6449 12.9191 32.3318 11.8586 33.1753 11.015C34.0189 10.1715 34.983 9.53281 36.0675 9.09898C37.1762 8.66516 38.309 8.44824 39.4658 8.44824C42.1652 8.44824 44.2982 9.27974 45.8648 10.9427C47.4314 12.5816 48.2147 15.0038 48.2147 18.2093C48.2147 18.5227 48.2026 18.8721 48.1785 19.2578C48.1544 19.6193 48.1303 19.9446 48.1062 20.2339H35.8868C36.0073 21.3425 36.5254 22.2222 37.4413 22.873C38.3572 23.5237 39.5863 23.8491 41.1288 23.8491C42.117 23.8491 43.081 23.7647 44.021 23.596C47.2221 22.9558 46.5535 24.0141 47.0939 27.2835C46.8047 27.4281 46.4191 27.5728 45.9371 27.7174C45.455 27.862 44.9128 27.9825 44.3102 28.0789C43.7318 28.1994 43.1051 28.2958 42.4303 28.3681C41.7555 28.4404 41.0806 28.4766 40.4058 28.4766C38.6946 28.4766 37.2003 28.2235 35.9229 27.7174C34.6696 27.2112 33.6212 26.5243 32.7777 25.6567C31.9582 24.7649 31.3436 23.7165 30.9339 22.5115C30.5483 21.3064 30.3555 20.0049 30.3555 18.607ZM43.0087 16.5463C42.9846 16.0884 42.9003 15.6425 42.7557 15.2087C42.6352 14.7749 42.4303 14.3893 42.1411 14.0518C41.876 13.7144 41.5265 13.4372 41.0927 13.2203C40.6829 13.0034 40.1648 12.895 39.5381 12.895C38.9356 12.895 38.4174 13.0034 37.9836 13.2203C37.5498 13.4131 37.1882 13.6783 36.899 14.0157C36.6098 14.3531 36.3808 14.7508 36.2121 15.2087C36.0675 15.6425 35.9591 16.0884 35.8868 16.5463H43.0087Z" fill="#6C38FF"/>
<path d="M18.6551 9.70938C19.6369 12.5458 20.6188 16.1459 21.9279 19.6369C23.0295 15.3153 23.4521 13.4462 24.2189 9.05485C25.4189 3.60015 25.9644 4.4729 31.0405 3.05127C29.1281 11.4549 27.2735 19.6369 24.8734 28.1047H19.3995L14.6635 15.2732L9.85536 28.1047H4.68553C2.71215 22.1101 0.54547 13.6368 0 11.6731C4.90923 10.473 5.12742 10.2548 6.21836 14.5095L7.67042 19.8551L7.09111 21.1642C8.65763 17.6501 10.0885 14.2447 11.0185 11.4549C11.8912 8.83663 12.0901 8.36121 14.6635 7.63659C17.2368 6.91198 17.6597 6.83386 18.6551 9.70938Z" fill="#6C38FF"/>
</svg>
