<svg width="182" height="43" viewBox="0 0 182 43" fill="none" xmlns="http://www.w3.org/2000/svg">
<path d="M164.551 21.2902C165.425 20.344 166.262 19.416 167.063 18.5061C167.863 17.5599 168.609 16.6682 169.301 15.8312C172.251 12.4385 176.427 13.6476 180.819 13.6476C178.891 15.8676 176.998 17.9966 175.142 20.0346C173.322 22.0363 171.321 24.1107 169.137 26.2579C170.229 27.2406 171.357 28.4234 172.522 29.8063C173.686 31.1529 174.814 32.554 175.906 34.0098C176.998 35.4655 177.999 36.9213 178.909 38.377C179.819 39.8327 180.583 41.1611 181.202 42.3621H171.867C171.284 41.4159 170.611 40.3786 169.847 39.2504C169.119 38.0858 168.336 36.9395 167.499 35.8113C166.662 34.6467 165.771 33.5367 164.824 32.4812C163.915 31.4258 163.005 30.5342 162.095 29.8063V42.3621H153.961V1.31017L162.095 0C162.024 16.1264 159.13 27.4183 164.551 21.2902Z" fill="white"/>
<path d="M145.677 19.966C142.99 19.582 142.004 19.7241 139.918 20.35L139.605 42.3697H131.471V15.1837C141.454 12.2868 145.229 12.1641 151.053 14.5905C150.31 18.2447 148.365 20.35 145.677 19.966Z" fill="white"/>
<path d="M115.987 36.5582C116.787 36.5582 117.552 36.54 118.28 36.5036C119.007 36.4672 119.59 36.4126 120.027 36.3399V30.1711C119.699 30.0984 119.208 30.0256 118.553 29.9528C117.897 29.88 117.297 29.8436 116.751 29.8436C115.987 29.8436 115.259 29.8982 114.567 30.0074C113.912 30.0802 113.33 30.2439 112.821 30.4987C112.311 30.7534 111.911 31.0992 111.62 31.5359C111.328 31.9726 111.183 32.5185 111.183 33.1736C111.183 34.4474 111.601 35.339 112.438 35.8485C113.312 36.3217 114.495 36.5582 115.987 36.5582ZM115.332 12.7568C117.734 12.7568 119.735 13.0298 121.337 13.5757C122.938 14.1216 124.212 14.9041 125.158 15.9231C126.141 16.9421 126.832 18.1795 127.232 19.6352C127.633 21.091 127.833 22.7105 127.833 24.4938V41.4168C126.668 41.6715 125.049 41.9627 122.974 42.2902C120.9 42.6541 118.389 42.8361 115.441 42.8361C113.585 42.8361 111.893 42.6723 110.364 42.3448C108.872 42.0172 107.58 41.4895 106.488 40.7617C105.396 39.9974 104.559 39.0148 103.977 37.8138C103.395 36.6128 103.104 35.1389 103.104 33.392C103.104 31.7179 103.431 30.2985 104.086 29.1339C104.778 27.9693 105.687 27.0413 106.816 26.3498C107.944 25.6583 109.236 25.167 110.692 24.8759C112.147 24.5483 113.658 24.3846 115.223 24.3846C116.278 24.3846 117.206 24.4392 118.007 24.5483C118.844 24.6211 119.517 24.7303 120.027 24.8759V24.1116C120.027 22.7287 119.608 21.6187 118.771 20.7816C117.934 19.9446 116.478 19.526 114.404 19.526C113.021 19.526 111.656 19.6352 110.309 19.8536C105.568 20.4944 106.546 18.9702 105.778 14.1216C106.252 13.976 106.834 13.8304 107.525 13.6849C108.253 13.5029 109.036 13.3573 109.873 13.2481C110.71 13.1026 111.583 12.9934 112.493 12.9206C113.439 12.8114 114.386 12.7568 115.332 12.7568Z" fill="white"/>
<path d="M103.897 4.60742C103.897 4.60742 103.897 8.09321 103.897 9.80597C103.897 11.5187 102.512 11.9027 101.744 11.8679C100.976 11.8332 92.488 11.8679 92.488 11.8679V42.4385H83.9719V11.8679H72.5625C72.5625 11.8679 72.5625 11.1348 72.5625 8.23768C72.5625 5.34059 72.5625 4.60742 77.938 4.60742C83.3134 4.60742 103.897 4.60742 103.897 4.60742Z" fill="white"/>
<path d="M45.8379 28.0967C45.8379 25.5492 46.22 23.3292 46.9843 21.4367C47.7849 19.5078 48.8222 17.9065 50.0959 16.6328C51.3697 15.359 52.8255 14.3945 54.4632 13.7395C56.1373 13.0844 57.8478 12.7568 59.5947 12.7568C63.6707 12.7568 66.8916 14.0124 69.2571 16.5236C71.6227 18.9983 72.8055 22.6559 72.8055 27.4962C72.8055 27.9693 72.7873 28.497 72.7509 29.0793C72.7145 29.6252 72.6781 30.1166 72.6417 30.5533H54.1902C54.3722 32.2274 55.1546 33.5557 56.5376 34.5384C57.9205 35.521 59.7766 36.0123 62.1058 36.0123C63.5979 36.0123 65.0537 35.8849 66.473 35.6302C71.3067 34.6635 70.2972 36.2615 71.1132 41.1984C70.6765 41.4168 70.0942 41.6351 69.3663 41.8535C68.6384 42.0718 67.8196 42.2538 66.9098 42.3994C66.0363 42.5813 65.0901 42.7269 64.0711 42.8361C63.052 42.9453 62.033 42.9999 61.014 42.9999C58.4301 42.9999 56.1737 42.6177 54.2448 41.8535C52.3523 41.0892 50.7692 40.052 49.4954 38.7418C48.2581 37.3953 47.33 35.8121 46.7113 33.9925C46.129 32.1728 45.8379 30.2075 45.8379 28.0967ZM64.9445 24.9851C64.9081 24.2936 64.7807 23.6203 64.5624 22.9652C64.3804 22.3101 64.0711 21.7278 63.6343 21.2183C63.234 20.7088 62.7063 20.2903 62.0512 19.9628C61.4325 19.6352 60.6501 19.4714 59.7038 19.4714C58.794 19.4714 58.0115 19.6352 57.3564 19.9628C56.7014 20.2539 56.1555 20.6542 55.7187 21.1637C55.282 21.6733 54.9363 22.2737 54.6815 22.9652C54.4632 23.6203 54.2994 24.2936 54.1902 24.9851H64.9445Z" fill="white"/>
<path d="M28.1694 14.6613C29.652 18.9443 31.1346 24.3805 33.1114 29.652C34.7748 23.1263 35.413 20.304 36.5708 13.6729C38.3829 5.43624 39.2065 6.7541 46.8715 4.60743C43.9838 17.297 41.1833 29.652 37.5592 42.4385H29.2935L22.142 23.0627L14.8817 42.4385H7.07521C4.09538 33.3865 0.823667 20.5917 0 17.6265C7.413 15.8144 7.74247 15.4849 9.3898 21.9095L11.5824 29.9815L10.7077 31.9583C13.0731 26.6518 15.2338 21.5097 16.6381 17.297C17.9559 13.3434 18.2562 12.6255 22.142 11.5313C26.0279 10.4371 26.6664 10.3192 28.1694 14.6613Z" fill="white"/>
</svg>
